<?xml version="1.0" encoding="UTF-8" standalone="no"?>
<svg width="601px" height="63px" viewBox="0 0 601 63" version="1.1" xmlns="http://www.w3.org/2000/svg" xmlns:xlink="http://www.w3.org/1999/xlink">
    <!-- Generator: Sketch 3.8.3 (29802) - http://www.bohemiancoding.com/sketch -->
    <title>Artboard 1</title>
    <desc>Created with Sketch.</desc>
    <defs></defs>
    <g id="Page-1" stroke="none" stroke-width="1" fill="none" fill-rule="evenodd">
        <g id="Artboard-1">
            <g id="Group" fill="#A1A8AE">
                <polygon id="Fill-13" points="77.2974397 32.1827077 63.021614 32.1827077 63.021614 46.4585334 77.2974397 46.4585334"></polygon>
                <polygon id="Fill-13" points="77.2974397 0.682707678 63.021614 0.682707678 63.021614 14.9585334 77.2974397 14.9585334"></polygon>
                <polygon id="Fill-14" points="61.5483488 48.2330185 47.2725231 48.2330185 47.2725231 62.5088442 61.5483488 62.5088442"></polygon>
                <polygon id="Fill-28" points="45.9805609 48.2330185 31.7047352 48.2330185 31.7047352 62.5088442 45.9805609 62.5088442"></polygon>
                <polygon id="Fill-30" points="30.23147 0.601726053 15.9556443 0.601726053 15.9556443 14.8775518 30.23147 14.8775518"></polygon>
                <polygon id="Fill-32" points="14.663682 16.4792994 0.38785634 16.4792994 0.38785634 30.7551251 14.663682 30.7551251"></polygon>
                <polygon id="Fill-33" points="14.6179994 32.1827077 0.342173697 32.1827077 0.342173697 46.4585334 14.6179994 46.4585334"></polygon>
                <polygon id="Fill-34" points="14.6179994 48.2330185 0.342173697 48.2330185 0.342173697 62.5088442 14.6179994 62.5088442"></polygon>
                <polygon id="Fill-35" points="30.23147 48.2330185 15.9556443 48.2330185 15.9556443 62.5088442 30.23147 62.5088442"></polygon>
            </g>
            <g id="Group" transform="translate(388.181399, 31.500000) scale(1, -1) translate(-388.181399, -31.500000) translate(349.181399, 0.000000)" fill="#A1A8AE">
                <polygon id="Fill-13" points="77.2974397 32.1827077 63.021614 32.1827077 63.021614 46.4585334 77.2974397 46.4585334"></polygon>
                <polygon id="Fill-13" points="77.2974397 0.682707678 63.021614 0.682707678 63.021614 14.9585334 77.2974397 14.9585334"></polygon>
                <polygon id="Fill-14" points="61.5483488 48.2330185 47.2725231 48.2330185 47.2725231 62.5088442 61.5483488 62.5088442"></polygon>
                <polygon id="Fill-28" points="45.9805609 48.2330185 31.7047352 48.2330185 31.7047352 62.5088442 45.9805609 62.5088442"></polygon>
                <polygon id="Fill-30" points="30.23147 0.601726053 15.9556443 0.601726053 15.9556443 14.8775518 30.23147 14.8775518"></polygon>
                <polygon id="Fill-32" points="14.663682 16.4792994 0.38785634 16.4792994 0.38785634 30.7551251 14.663682 30.7551251"></polygon>
                <polygon id="Fill-33" points="14.6179994 32.1827077 0.342173697 32.1827077 0.342173697 46.4585334 14.6179994 46.4585334"></polygon>
                <polygon id="Fill-34" points="14.6179994 48.2330185 0.342173697 48.2330185 0.342173697 62.5088442 14.6179994 62.5088442"></polygon>
                <polygon id="Fill-35" points="30.23147 48.2330185 15.9556443 48.2330185 15.9556443 62.5088442 30.23147 62.5088442"></polygon>
            </g>
            <g id="Group" transform="translate(172.267567, 0.000000)" fill="#A1A8AE">
                <polygon id="Fill-13" points="77.2974397 32.1827077 63.021614 32.1827077 63.021614 46.4585334 77.2974397 46.4585334"></polygon>
                <polygon id="Fill-13" points="77.2974397 15.9827077 63.021614 15.9827077 63.021614 30.2585334 77.2974397 30.2585334"></polygon>
                <polygon id="Fill-14" points="61.5483488 48.2330185 47.2725231 48.2330185 47.2725231 62.5088442 61.5483488 62.5088442"></polygon>
                <polygon id="Fill-14" points="61.5483488 32.0330185 47.2725231 32.0330185 47.2725231 46.3088442 61.5483488 46.3088442"></polygon>
                <polygon id="Fill-14" points="61.5483488 15.8330185 47.2725231 15.8330185 47.2725231 30.1088442 61.5483488 30.1088442"></polygon>
                <polygon id="Fill-28" points="45.9805609 48.2330185 31.7047352 48.2330185 31.7047352 62.5088442 45.9805609 62.5088442"></polygon>
                <polygon id="Fill-28" points="45.9805609 32.0330185 31.7047352 32.0330185 31.7047352 46.3088442 45.9805609 46.3088442"></polygon>
                <polygon id="Fill-30" points="30.23147 0.601726053 15.9556443 0.601726053 15.9556443 14.8775518 30.23147 14.8775518"></polygon>
                <polygon id="Fill-30" points="46.3725231 0.601726053 32.0966974 0.601726053 32.0966974 14.8775518 46.3725231 14.8775518"></polygon>
                <polygon id="Fill-30" points="30.23147 16.8017261 15.9556443 16.8017261 15.9556443 31.0775518 30.23147 31.0775518"></polygon>
                <polygon id="Fill-30" points="30.23147 32.1017261 15.9556443 32.1017261 15.9556443 46.3775518 30.23147 46.3775518"></polygon>
                <polygon id="Fill-33" points="14.6179994 32.1827077 0.342173697 32.1827077 0.342173697 46.4585334 14.6179994 46.4585334"></polygon>
            </g>
            <g id="Group" transform="translate(561.600000, 31.500000) scale(1, -1) translate(-561.600000, -31.500000) translate(522.600000, 0.000000)" fill="#A1A8AE">
                <polygon id="Fill-13" points="77.2974397 32.1827077 63.021614 32.1827077 63.021614 46.4585334 77.2974397 46.4585334"></polygon>
                <polygon id="Fill-13" points="77.2974397 15.9827077 63.021614 15.9827077 63.021614 30.2585334 77.2974397 30.2585334"></polygon>
                <polygon id="Fill-14" points="61.5483488 48.2330185 47.2725231 48.2330185 47.2725231 62.5088442 61.5483488 62.5088442"></polygon>
                <polygon id="Fill-14" points="61.5483488 32.0330185 47.2725231 32.0330185 47.2725231 46.3088442 61.5483488 46.3088442"></polygon>
                <polygon id="Fill-14" points="61.5483488 15.8330185 47.2725231 15.8330185 47.2725231 30.1088442 61.5483488 30.1088442"></polygon>
                <polygon id="Fill-28" points="45.9805609 48.2330185 31.7047352 48.2330185 31.7047352 62.5088442 45.9805609 62.5088442"></polygon>
                <polygon id="Fill-28" points="45.9805609 32.0330185 31.7047352 32.0330185 31.7047352 46.3088442 45.9805609 46.3088442"></polygon>
                <polygon id="Fill-30" points="30.23147 0.601726053 15.9556443 0.601726053 15.9556443 14.8775518 30.23147 14.8775518"></polygon>
                <polygon id="Fill-30" points="46.3725231 0.601726053 32.0966974 0.601726053 32.0966974 14.8775518 46.3725231 14.8775518"></polygon>
                <polygon id="Fill-30" points="30.23147 16.8017261 15.9556443 16.8017261 15.9556443 31.0775518 30.23147 31.0775518"></polygon>
                <polygon id="Fill-30" points="30.23147 32.1017261 15.9556443 32.1017261 15.9556443 46.3775518 30.23147 46.3775518"></polygon>
                <polygon id="Fill-33" points="14.6179994 32.1827077 0.342173697 32.1827077 0.342173697 46.4585334 14.6179994 46.4585334"></polygon>
            </g>
            <g id="Group-2" transform="translate(455.638315, 16.500000)">
                <path d="M23.8735931,29.4591301 C22.5600805,30.4688918 21.4952682,29.9412198 21.4952682,28.2789329 L21.4952682,2.00853252 C21.4952682,0.346965889 22.5655322,-0.177235446 23.8735931,0.828335299 L40.1169433,13.3153974 C41.4304559,14.3251591 41.4250042,15.9664972 40.1169433,16.972068 L23.8735931,29.4591301 Z" id="Triangle-1" fill="#F2867F"></path>
                <path d="M0.682840731,14.9730995 L22.4952682,14.9730995" id="Path-160" stroke="#F2867F" stroke-width="9" stroke-linecap="round"></path>
            </g>
            <g id="Group-2" transform="translate(278.724483, 16.500000)">
                <path d="M23.8735931,29.4591301 C22.5600805,30.4688918 21.4952682,29.9412198 21.4952682,28.2789329 L21.4952682,2.00853252 C21.4952682,0.346965889 22.5655322,-0.177235446 23.8735931,0.828335299 L40.1169433,13.3153974 C41.4304559,14.3251591 41.4250042,15.9664972 40.1169433,16.972068 L23.8735931,29.4591301 Z" id="Triangle-1" fill="#F2867F"></path>
                <path d="M0.682840731,14.9730995 L22.4952682,14.9730995" id="Path-160" stroke="#F2867F" stroke-width="9" stroke-linecap="round"></path>
            </g>
            <g id="Group-2" transform="translate(101.810651, 16.966928)">
                <path d="M23.8735931,29.4591301 C22.5600805,30.4688918 21.4952682,29.9412198 21.4952682,28.2789329 L21.4952682,2.00853252 C21.4952682,0.346965889 22.5655322,-0.177235446 23.8735931,0.828335299 L40.1169433,13.3153974 C41.4304559,14.3251591 41.4250042,15.9664972 40.1169433,16.972068 L23.8735931,29.4591301 Z" id="Triangle-1" fill="#F2867F"></path>
                <path d="M0.682840731,14.9730995 L22.4952682,14.9730995" id="Path-160" stroke="#F2867F" stroke-width="9" stroke-linecap="round"></path>
            </g>
        </g>
    </g>
</svg>